<svg width="32" height="32" version="1.1" viewBox="0 0 8.4667 8.4667" xmlns="http://www.w3.org/2000/svg">
 <path d="m3.9073-0.064617-0.0022 0.70076 1.4386 0.004348 0.0022-0.70076zm-0.003169 1.1019-0.018526 5.8673 1.4374 0.0043925-4.438e-4 0.1838-0.23727-9.014e-4 0.23757 0.40432 0.019842-6.4546zm1.4187 6.4589-0.47995 0.00357-0.47974 0.00286-0.47903 0.00306 0.20974 0.31143a0.31665 0.35574 61.163 0 1 0.11391-0.095001 0.31665 0.35574 61.163 0 1 0.46483 0.1058 0.31665 0.35574 61.163 0 1-0.15916 0.44936 0.31665 0.35574 61.163 0 1-0.086309 0.034367l0.12778 0.18973zm-1.4387 0.0094906 0.23641-0.41656-0.23539-7.418e-4zm0.23641-0.41656 0.24262 0.4135 0.23446-0.4125zm0.72236 0.41064 0.23206-0.40819-0.47194-0.0014369z" fill-opacity=".84516"/>
 <path d="m2.2914 7.0503 0.95504-0.35086 0.20811 0.99594-1.1632-0.64508" fill="none"/>
</svg>
