<svg width="32" height="32" version="1.1" viewBox="0 0 8.4667 8.4667" xmlns="http://www.w3.org/2000/svg">
 <path transform="scale(.26458)" d="m16.402 2.457c-5.7302 0.072325-6.4174 4.0425-6.5 4.875h13.627c-0.0871-0.83855-0.80804-4.8214-6.8125-4.875-0.1066-9.521e-4 -0.21116-0.0012997-0.31445 0zm0.2832 3.5254h0.095703v0.087891h-0.095703v-0.087891zm-1.5664 0.0039062h0.18359c0.040296 0 0.073597 0.0028493 0.10156 0.0097657 0.027966 0.0066156 0.052567 0.018769 0.074219 0.033203 0.02556 0.01714 0.044761 0.03694 0.058593 0.0625 0.014134 0.02556 0.021485 0.058564 0.021485 0.097656 0 0.02977-0.0051 0.056471-0.015625 0.082031-0.010224 0.02526-0.024325 0.047762-0.042969 0.066406-0.023155 0.023155-0.050457 0.041007-0.082031 0.052734-0.031575 0.011427-0.071027 0.017578-0.11914 0.017578h-0.089844v0.25h-0.089843v-0.67188zm0.089843 0.076172v0.26953h0.076172c0.036086 1e-7 0.065338-0.0034506 0.087891-0.0097656 0.022553-0.0066156 0.040554-0.017117 0.054687-0.03125 0.014134-0.014434 0.023584-0.028984 0.029297-0.044922 0.006014-0.015938 0.009766-0.034841 0.009766-0.054688 0-0.023155-0.005553-0.043406-0.013672-0.060547-0.008119-0.017141-0.018617-0.03019-0.035156-0.041016-0.014434-0.0093221-0.032137-0.015622-0.050781-0.019531-0.018344-0.00421-0.042046-0.0078125-0.070313-0.0078125h-0.087891zm1.0527 0.078125c0.070667 0 0.12587 0.024453 0.16797 0.072266 0.042099 0.047512 0.064453 0.11127 0.064453 0.19336s-0.022354 0.1478-0.064453 0.19531c-0.0421 0.047512-0.097302 0.070312-0.16797 0.070312-0.071269 0-0.12782-0.0228-0.16992-0.070312-0.041799-0.047512-0.0625-0.11322-0.0625-0.19531s0.020701-0.14585 0.0625-0.19336c0.042099-0.047813 0.098653-0.072266 0.16992-0.072266zm1.8398 0c0.067961 0 0.11956 0.0189 0.15625 0.058594 0.036988 0.039694 0.056641 0.096849 0.056641 0.16992v0.044922h-0.37109c0 0.030973 0.00435 0.058876 0.013672 0.082031 0.009322 0.022854 0.020871 0.041906 0.03711 0.056641 0.015637 0.014434 0.03529 0.025986 0.05664 0.033203 0.021651 0.0072171 0.044452 0.0097656 0.070313 0.0097656 0.034281 0 0.068934-0.0059992 0.10352-0.019531 0.034883-0.013833 0.059484-0.027784 0.074219-0.041016h0.00586v0.091797c-0.028568 0.012028-0.058121 0.023131-0.087891 0.03125-0.029771 0.0081192-0.060973 0.011719-0.09375 0.011719-0.083598 0-0.1484-0.023253-0.19531-0.068359-0.046911-0.045407-0.072265-0.11006-0.072265-0.19336 0-0.082395 0.023553-0.1469 0.068359-0.19531 0.045107-0.048414 0.10436-0.072266 0.17773-0.072266zm-0.98633 0.0019531c0.035484 0 0.065635 0.0017983 0.091797 0.0078125 0.026463 0.0057135 0.049114 0.017117 0.06836 0.03125 0.018944 0.013833 0.034998 0.030782 0.044921 0.052734 0.009924 0.021952 0.013672 0.049554 0.013672 0.082031v0.3418h-0.083984v-0.054688c-0.007518 0.0051121-0.018319 0.014116-0.03125 0.023438-0.01263 0.0090214-0.025081 0.016072-0.037109 0.021484-0.014134 0.0069164-0.028532 0.011114-0.046875 0.015625-0.018344 0.0048114-0.041748 0.0078125-0.066407 0.0078125-0.045407 0-0.083659-0.014851-0.11523-0.044922s-0.046875-0.068624-0.046875-0.11523c0-0.03819 0.009152-0.068342 0.025391-0.091797 0.016539-0.023756 0.03994-0.043109 0.070312-0.056641 0.030673-0.013532 0.066373-0.022532 0.10938-0.027344s0.089355-0.0073599 0.13867-0.0097656v-0.013672c0-0.019246-0.002849-0.036198-0.009766-0.048828-0.006615-0.01263-0.016667-0.02208-0.029296-0.029297-0.012029-0.0069164-0.026129-0.011266-0.042969-0.013672s-0.034391-0.0039062-0.052735-0.0039062c-0.022252 0-0.046854 0.0037514-0.074218 0.0097656-0.027365 0.0057135-0.056769 0.014264-0.085938 0.025391h-0.003906v-0.085938c0.016539-0.0045106 0.040992-0.010212 0.072266-0.015625 0.031273-0.0054128 0.061425-0.0078125 0.091796-0.0078125zm-1.4453 0.011719h0.085937v0.074219c0.03368-0.027064 0.062331-0.045514 0.087891-0.056641 0.025861-0.011427 0.051362-0.017578 0.078125-0.017578 0.014735 0 0.026587 0.001051 0.033203 0.0019531 0.006616 6.014e-4 0.016066 0.0018013 0.029297 0.0039062v0.085938h-0.003906c-0.01263-0.0030072-0.025081-0.0046566-0.03711-0.0058594-0.011727-0.0015036-0.02673-0.0019532-0.042968-0.0019532-0.026162 0-0.049862 0.0058504-0.074219 0.017578-0.024358 0.011427-0.047759 0.026578-0.070313 0.044922v0.35742h-0.085937v-0.50391zm0.91602 0h0.19141v0.51562c0 0.058939-0.014851 0.10469-0.044922 0.13477s-0.070574 0.044922-0.12109 0.044922c-0.012028 0-0.028981-0.0015006-0.048828-0.0039063-0.019546-0.0024057-0.035597-0.0061571-0.048828-0.0097656v-0.080078h0.003906c0.00842 0.0033078 0.021023 0.0075088 0.035156 0.011719 0.014435 0.00421 0.027484 0.0058594 0.041016 0.0058594 0.021651 0 0.039503-0.0037514 0.052734-0.0097656 0.013232-0.0060142 0.022682-0.015315 0.029297-0.027344 0.006616-0.012028 0.011868-0.025828 0.013672-0.042969 0.002105-0.01684 0.001953-0.038142 0.001953-0.0625v-0.40625h-0.10547v-0.070312zm0.91211 0h0.083984v0.074219c0.03368-0.027064 0.064284-0.045514 0.089844-0.056641 0.025861-0.011427 0.051362-0.017578 0.078125-0.017578 0.014735 0 0.026587 0.001051 0.033203 0.0019531 0.006616 6.014e-4 0.016066 0.0018013 0.029297 0.0039062v0.085938h-0.003906c-0.01263-0.0030072-0.025081-0.0046566-0.03711-0.0058594-0.011727-0.0015036-0.02673-0.0019532-0.042968-0.0019532-0.026162 0-0.051815 0.0058504-0.076172 0.017578-0.024358 0.011427-0.047759 0.026578-0.070313 0.044922v0.35742h-0.083984v-0.50391zm0.59961 0.056641c-0.045407 0-0.082311 0.012299-0.10938 0.039062-0.026763 0.026763-0.041313 0.059916-0.044922 0.099609h0.28711c-3.01e-4 -0.044505-0.010951-0.079158-0.033203-0.10352-0.021952-0.024358-0.054503-0.035156-0.09961-0.035156zm-1.8359 0.0019531c-0.046009 0-0.081862 0.016953-0.10742 0.048828-0.02526 0.031575-0.039063 0.079277-0.039063 0.14453 0 0.063149 0.013502 0.11175 0.039063 0.14453 0.02556 0.032477 0.061714 0.048828 0.10742 0.048828 0.045106 0 0.079908-0.016652 0.10547-0.048828 0.025861-0.032477 0.039062-0.08078 0.039062-0.14453 0-0.065254-0.013502-0.11296-0.039062-0.14453-0.025561-0.031875-0.060062-0.048828-0.10547-0.048828zm0.98828 0.18164c-0.025861 0.0015036-0.056614 0.0028523-0.091797 0.0058594-0.034882 0.0030071-0.061583 0.0079584-0.082031 0.013672-0.024358 0.0069164-0.045511 0.016515-0.060547 0.03125-0.015036 0.014434-0.021484 0.034986-0.021484 0.060547 0 0.028868 0.007949 0.051671 0.02539 0.066406 0.017441 0.014434 0.044294 0.021484 0.080078 0.021484 0.029771 0 0.057373-0.0061511 0.082032-0.017578 0.024658-0.011728 0.047309-0.02673 0.068359-0.042969v-0.13867zm-7.3594 3.8633v18.861h13.652v-18.861h-13.652zm3.9375 2.7461a1.7772 1.7772 0 0 1 1.7773 1.7773 1.7772 1.7772 0 0 1-1.7773 1.7773 1.7772 1.7772 0 0 1-1.7773-1.7773 1.7772 1.7772 0 0 1 1.7773-1.7773zm6.6875 0.97656c0.099108 0.006528 0.19145 0.038285 0.26953 0.097656 0.27764 0.2111 0.26755 0.68822-0.021484 1.0684l-7.0898 9.3262c-0.28903 0.38014-0.7458 0.51578-1.0234 0.30469-0.27764-0.2111-0.2695-0.68822 0.019531-1.0684l7.0918-9.3242c0.18065-0.23759 0.42551-0.3806 0.65234-0.40234 0.034026-0.003262 0.068527-0.004129 0.10156-0.001953zm-0.44531 7a1.7772 1.7772 0 0 1 1.7773 1.7773 1.7772 1.7772 0 0 1-1.7773 1.7773 1.7772 1.7772 0 0 1-1.7773-1.7773 1.7772 1.7772 0 0 1 1.7773-1.7773z" color="#354F52" fill="currentColor" stroke-linecap="square" stroke-linejoin="round" stroke-width=".037795"/>
</svg>
